<svg width="22" height="22" viewBox="0 0 22 22" fill="none" xmlns="http://www.w3.org/2000/svg">
<path d="M18.8571 14.9287H17.2856V18.8573H18.8571V14.9287Z" fill="white"/>
<path d="M15.7145 11H14.1431V18.8571H15.7145V11Z" fill="white"/>
<path d="M7.07164 18.8571C6.03009 18.8559 5.03156 18.4416 4.29507 17.7051C3.55859 16.9687 3.14429 15.9701 3.14307 14.9286H4.7145C4.7145 15.3948 4.85274 15.8505 5.11175 16.2381C5.37075 16.6258 5.73889 16.9279 6.1696 17.1063C6.60031 17.2847 7.07425 17.3314 7.53149 17.2404C7.98873 17.1495 8.40874 16.925 8.73839 16.5953C9.06804 16.2657 9.29254 15.8457 9.38349 15.3884C9.47444 14.9312 9.42776 14.4572 9.24935 14.0265C9.07095 13.5958 8.76883 13.2277 8.3812 12.9687C7.99357 12.7097 7.53784 12.5714 7.07164 12.5714V11C8.11356 11 9.11281 11.4139 9.84956 12.1507C10.5863 12.8874 11.0002 13.8866 11.0002 14.9286C11.0002 15.9705 10.5863 16.9697 9.84956 17.7065C9.11281 18.4432 8.11356 18.8571 7.07164 18.8571Z" fill="white"/>
<path d="M20.4286 0H1.57143C1.15479 0.000416017 0.75533 0.16611 0.46072 0.46072C0.16611 0.75533 0.000416017 1.15479 0 1.57143V20.4286C0.000478291 20.8452 0.166193 21.2446 0.460789 21.5392C0.755385 21.8338 1.15481 21.9995 1.57143 22H20.4286C20.8452 21.9994 21.2445 21.8337 21.5391 21.5391C21.8337 21.2445 21.9994 20.8452 22 20.4286V1.57143C21.9995 1.15481 21.8338 0.755385 21.5392 0.460789C21.2446 0.166193 20.8452 0.000478291 20.4286 0ZM20.4286 7.07143H9.42857V1.57143H20.4286V7.07143ZM7.85714 1.57143V7.07143H1.57143V1.57143H7.85714ZM1.57143 20.4286V8.64286H20.4291L20.4301 20.4286H1.57143Z" fill="white"/>
</svg>
