<svg width="200" height="48" viewBox="0 0 200 48" fill="none" xmlns="http://www.w3.org/2000/svg">
<path d="M53.0312 35.1033V14.6021H55.1963L66.6591 30.5158V14.6021H69.1299V35.1033H66.918L55.5021 19.1745V35.1033H53.0312Z" fill="white"/>
<path d="M100.508 30.2406V33.5474C99.4889 34.1728 98.4488 34.648 97.3916 34.9732C96.3346 35.2985 95.286 35.4635 94.2501 35.4635C93.2524 35.4635 92.3014 35.3084 91.3972 35.0032C90.4929 34.693 89.6396 34.2379 88.8329 33.6325C87.5423 32.637 86.536 31.3613 85.8186 29.8154C85.1012 28.2645 84.7402 26.5836 84.7402 24.7627C84.7402 23.3869 84.9779 22.0512 85.4493 20.7555C85.9205 19.4648 86.5955 18.3292 87.4659 17.3636C88.3956 16.3281 89.4357 15.5527 90.5863 15.0423C91.741 14.5271 93.0188 14.272 94.4199 14.272C95.4005 14.272 96.3685 14.402 97.3323 14.6672C98.2917 14.9323 99.3022 15.3475 100.355 15.9178V19.1046C99.2513 18.3992 98.2154 17.8789 97.243 17.5387C96.2751 17.2035 95.3326 17.0334 94.4199 17.0334C92.3864 17.0334 90.7094 17.7788 89.3805 19.2696C88.0517 20.7604 87.3894 22.6265 87.3894 24.8727C87.3894 27.094 88.0432 28.945 89.3509 30.4358C90.6584 31.9266 92.2971 32.672 94.2713 32.672C95.286 32.672 96.3091 32.4719 97.345 32.0717C98.3851 31.6715 99.438 31.0611 100.508 30.2406Z" fill="white"/>
<path d="M103.255 14.6021H105.726V26.3685C105.726 27.6791 105.785 28.6097 105.904 29.155C106.027 29.7004 106.227 30.1756 106.511 30.5758C107.025 31.2911 107.632 31.8214 108.337 32.1766C109.041 32.5268 109.844 32.7019 110.74 32.7019C112.247 32.7019 113.461 32.2417 114.382 31.3262C115.303 30.4057 115.762 29.195 115.762 27.6892V14.6021H118.233V27.7792C118.233 30.0604 117.541 31.9115 116.157 33.3323C114.773 34.7531 112.968 35.4635 110.74 35.4635C109.419 35.4635 108.231 35.1883 107.169 34.6381C106.108 34.0827 105.216 33.2772 104.486 32.2117C104.036 31.5763 103.722 30.8709 103.535 30.0905C103.348 29.31 103.255 28.1095 103.255 26.4885V14.6021V14.6021Z" fill="white"/>
<path d="M124.346 26.0683V32.4319H127.657C128.867 32.4319 129.75 32.1817 130.306 31.6764C130.867 31.1711 131.147 30.3857 131.147 29.3101C131.147 28.1945 130.833 27.374 130.209 26.8537C129.585 26.3285 128.6 26.0683 127.258 26.0683H124.346ZM121.875 35.1033V14.6021H126.97C128.706 14.6021 130.043 15.0674 130.982 15.9929C131.924 16.9233 132.395 18.2391 132.395 19.95C132.395 21.0056 132.183 21.8861 131.763 22.5864C131.338 23.2918 130.693 23.8322 129.823 24.2123C131.088 24.5675 132.068 25.2079 132.76 26.1334C133.452 27.0638 133.796 28.1895 133.796 29.5203C133.796 31.2211 133.27 32.5769 132.213 33.5874C131.156 34.598 129.725 35.1033 127.916 35.1033H121.875ZM124.346 23.3969H126.027C127.296 23.3969 128.239 23.1268 128.85 22.5915C129.466 22.0561 129.772 21.2357 129.772 20.1301C129.772 19.1246 129.53 18.3891 129.046 17.9339C128.557 17.4736 127.785 17.2435 126.723 17.2435H124.346V23.3969Z" fill="white"/>
<path d="M139.944 26.4286H145.365L142.618 19.0444L139.944 26.4286ZM134.208 35.1033L141.748 14.6021H143.561L151.198 35.1033H148.626L146.384 29.07H138.971L136.759 35.1033H134.208Z" fill="white"/>
<path d="M155.355 35.1033V17.2736H148.961V14.6021H164.219V17.2736H157.825V35.1033H155.355Z" fill="white"/>
<path d="M167.96 24.8727C167.96 25.9182 168.125 26.9189 168.456 27.8643C168.788 28.8099 169.267 29.6504 169.887 30.3857C170.494 31.1161 171.203 31.6815 172.023 32.0767C172.838 32.4719 173.691 32.672 174.578 32.672C175.487 32.672 176.344 32.4769 177.147 32.0916C177.945 31.7064 178.663 31.1361 179.291 30.3857C179.911 29.6504 180.39 28.8099 180.726 27.8643C181.061 26.9189 181.231 25.9182 181.231 24.8727C181.231 23.8272 181.065 22.8416 180.734 21.906C180.403 20.9756 179.911 20.1201 179.265 19.3497C178.646 18.5943 177.932 18.0239 177.126 17.6287C176.323 17.2335 175.474 17.0334 174.578 17.0334C173.712 17.0334 172.88 17.2335 172.069 17.6337C171.263 18.0339 170.532 18.6043 169.887 19.3497C169.267 20.0601 168.788 20.8955 168.456 21.8561C168.125 22.8116 167.96 23.8171 167.96 24.8727V24.8727ZM165.311 24.7627C165.311 23.397 165.548 22.0662 166.02 20.7805C166.491 19.4897 167.166 18.3491 168.036 17.3636C168.923 16.358 169.925 15.5927 171.046 15.0624C172.163 14.5371 173.343 14.272 174.578 14.272C175.835 14.272 177.032 14.5371 178.166 15.0723C179.295 15.6026 180.293 16.3681 181.155 17.3636C182.059 18.3992 182.738 19.5548 183.197 20.8205C183.651 22.0912 183.88 23.472 183.88 24.9577C183.88 26.3536 183.647 27.6943 183.175 28.98C182.708 30.2657 182.042 31.3963 181.18 32.3718C180.276 33.3874 179.27 34.1577 178.153 34.6781C177.036 35.2034 175.844 35.4635 174.578 35.4635C173.343 35.4635 172.158 35.1934 171.025 34.6581C169.896 34.1177 168.898 33.3574 168.036 32.3718C167.14 31.3462 166.461 30.1857 166.003 28.9C165.54 27.6092 165.311 26.2284 165.311 24.7627V24.7627Z" fill="white"/>
<path d="M186.627 35.1033V14.6021H191.722C193.479 14.6021 194.838 15.0923 195.793 16.0679C196.748 17.0434 197.224 18.4291 197.224 20.2152C197.224 21.5659 196.96 22.6514 196.438 23.4719C195.912 24.2923 195.088 24.9077 193.955 25.3179C194.248 25.5031 194.519 25.7481 194.778 26.0583C195.037 26.3635 195.368 26.8788 195.776 27.6042L200 35.1033H196.99L194.006 29.7253C193.11 28.1045 192.388 27.0689 191.836 26.6236C191.288 26.1735 190.63 25.9483 189.871 25.9483H189.123V35.1033H186.627ZM189.123 23.487H191.187C192.346 23.487 193.212 23.2218 193.789 22.6964C194.362 22.1663 194.651 21.3608 194.651 20.2751C194.651 19.1596 194.379 18.3541 193.831 17.8488C193.284 17.3436 192.401 17.0935 191.187 17.0935H189.123V23.487Z" fill="white"/>
<path d="M48.7889 11.7989C50.2714 11.7989 51.4733 10.5893 51.4733 9.09714C51.4733 7.605 50.2714 6.39539 48.7889 6.39539C47.3063 6.39539 46.1045 7.605 46.1045 9.09714C46.1045 10.5893 47.3063 11.7989 48.7889 11.7989Z" fill="#FF6583"/>
<path d="M50.0279 14.2784H47.5923V34.8024H50.0279V14.2784Z" fill="white"/>
<path d="M0 34.7726V14.314H2.97163V34.7726H0Z" fill="white"/>
<path d="M13.0998 34.7726V16.9799H5.48877V14.314H23.6523V16.9799H16.0412V34.7726H13.0998Z" fill="white"/>
<path d="M27.3226 27.9683C28.8051 27.9683 30.0069 26.7587 30.0069 25.2666C30.0069 23.7744 28.8051 22.5648 27.3226 22.5648C25.84 22.5648 24.6382 23.7744 24.6382 25.2666C24.6382 26.7587 25.84 27.9683 27.3226 27.9683Z" fill="white"/>
<path d="M58.0344 47C70.6551 47 80.8862 36.7025 80.8862 24C80.8862 11.2975 70.6551 1 58.0344 1C45.4137 1 35.1826 11.2975 35.1826 24C35.1826 36.7025 45.4137 47 58.0344 47Z" stroke="white" stroke-miterlimit="22.9256"/>
</svg>
